<?xml version="1.0" encoding="UTF-8" standalone="no"?>
<!DOCTYPE svg PUBLIC "-//W3C//DTD SVG 1.1//EN" "http://www.w3.org/Graphics/SVG/1.1/DTD/svg11.dtd">
<svg width="100%" height="140px" viewBox="0 0 172 140" version="1.1" xmlns="http://www.w3.org/2000/svg" xmlns:xlink="http://www.w3.org/1999/xlink" xml:space="preserve" xmlns:serif="http://www.serif.com/" style="fill-rule:evenodd;clip-rule:evenodd;stroke-linejoin:round;stroke-miterlimit:2;">
    <g transform="matrix(1,0,0,1,-709,-54)">
        <g id="Logo" transform="matrix(2.3331,0,0,2.3331,500.861,-22.668)">
            <g transform="matrix(0,11.3346,11.3346,0,126,32.9486)">
                <ellipse cx="0.5" cy="0" rx="0.508" ry="0.5" style="fill:url(#_Linear1);"/>
            </g>
            <g transform="matrix(73.5775,0,0,-73.5775,89.2113,65.9932)">
                <path d="M0.5,0.189C0.428,0.262 0.33,0.326 0.221,0.365C0.194,0.298 0.172,0.234 0.162,0.153C0.079,0.175 0.031,0.169 0.009,0.167C-0.014,0.044 0.004,-0.095 0.078,-0.197C0.182,-0.342 0.348,-0.353 0.433,-0.365C0.397,-0.33 0.316,-0.237 0.299,-0.214C0.299,-0.214 0.298,-0.214 0.298,-0.214L0.299,-0.214C0.222,-0.112 0.198,-0.006 0.203,0.118C0.205,0.143 0.209,0.169 0.213,0.188L0.213,0.188C0.22,0.228 0.232,0.268 0.246,0.307C0.288,0.289 0.385,0.241 0.47,0.156C0.438,0.119 0.412,0.08 0.391,0.039C0.391,0.039 0.331,0.094 0.238,0.128C0.236,0.112 0.236,0.095 0.236,0.079C0.373,0.019 0.464,-0.085 0.499,-0.146C0.529,-0.107 0.548,-0.076 0.592,-0.035C0.6,-0.057 0.607,-0.08 0.611,-0.104C0.598,-0.126 0.553,-0.195 0.5,-0.24C0.447,-0.195 0.402,-0.126 0.389,-0.104C0.391,-0.092 0.393,-0.081 0.397,-0.069C0.386,-0.058 0.373,-0.047 0.36,-0.036C0.351,-0.063 0.346,-0.087 0.342,-0.112C0.395,-0.211 0.454,-0.26 0.499,-0.297C0.547,-0.259 0.614,-0.202 0.658,-0.112C0.638,0.005 0.57,0.105 0.551,0.13C0.54,0.119 0.529,0.108 0.52,0.097C0.541,0.069 0.559,0.04 0.574,0.009C0.546,-0.015 0.522,-0.041 0.5,-0.069C0.478,-0.041 0.454,-0.015 0.426,0.009C0.462,0.083 0.525,0.156 0.555,0.18L0.555,0.18C0.633,0.25 0.716,0.291 0.754,0.307C0.775,0.25 0.789,0.194 0.794,0.14C0.735,0.119 0.682,0.091 0.633,0.056C0.64,0.044 0.647,0.029 0.653,0.015C0.697,0.047 0.761,0.082 0.819,0.1C0.872,0.116 0.927,0.124 0.952,0.124C0.958,0.076 0.964,-0.062 0.886,-0.17C0.842,-0.232 0.776,-0.275 0.691,-0.298C0.754,-0.232 0.841,-0.108 0.842,0.074C0.827,0.07 0.811,0.065 0.797,0.059C0.793,-0.06 0.751,-0.148 0.701,-0.214L0.702,-0.214C0.698,-0.218 0.621,-0.312 0.567,-0.365C0.652,-0.353 0.818,-0.342 0.922,-0.197C0.996,-0.095 1.014,0.044 0.991,0.167C0.969,0.169 0.916,0.174 0.838,0.153C0.828,0.234 0.806,0.298 0.779,0.365C0.67,0.326 0.572,0.262 0.5,0.189ZM0.114,-0.17C0.036,-0.062 0.042,0.076 0.048,0.124L0.049,0.124C0.081,0.124 0.119,0.118 0.158,0.107C0.149,-0.094 0.242,-0.228 0.309,-0.298C0.224,-0.275 0.158,-0.232 0.114,-0.17Z" style="fill:url(#_Linear2);fill-rule:nonzero;"/>
            </g>
        </g>
    </g>
    <defs>
        <linearGradient id="_Linear1" x1="0" y1="0" x2="1" y2="0" gradientUnits="userSpaceOnUse" gradientTransform="matrix(0,1,1,0,0.49998,-0.49998)"><stop offset="0" style="stop-color:rgb(222,95,37);stop-opacity:1"/><stop offset="0.16" style="stop-color:rgb(243,119,79);stop-opacity:1"/><stop offset="0.5" style="stop-color:rgb(255,220,179);stop-opacity:1"/><stop offset="0.74" style="stop-color:rgb(255,149,109);stop-opacity:1"/><stop offset="1" style="stop-color:rgb(208,68,5);stop-opacity:1"/></linearGradient>
        <linearGradient id="_Linear2" x1="0" y1="0" x2="1" y2="0" gradientUnits="userSpaceOnUse" gradientTransform="matrix(1,0,0,-1,0,-8.28786e-06)"><stop offset="0" style="stop-color:rgb(222,95,37);stop-opacity:1"/><stop offset="0.16" style="stop-color:rgb(243,119,79);stop-opacity:1"/><stop offset="0.5" style="stop-color:rgb(255,220,179);stop-opacity:1"/><stop offset="0.74" style="stop-color:rgb(255,149,109);stop-opacity:1"/><stop offset="1" style="stop-color:rgb(208,68,5);stop-opacity:1"/></linearGradient>
    </defs>
</svg>
